<svg xmlns="http://www.w3.org/2000/svg" viewBox="0 -240 640 640"><path d="M 171.681 22.184 L 161.862 28.285 162.207 75.393 C 162.545 121.613, 162.594 122.607, 164.819 128.174 C 167.548 135.003, 173.509 141.420, 179.844 144.348 L 184.500 146.500 311.750 146.769 L 439 147.037 439 136.019 L 439 125 405.393 125 C 375.618 125, 371.853 124.825, 372.374 123.468 C 375.512 115.291, 376.027 109.401, 375.767 84.661 L 375.500 59.241 365.330 63.254 L 355.161 67.266 354.830 89.883 C 354.535 110.127, 354.290 112.913, 352.500 116.435 C 348.869 123.580, 346.671 124.456, 331.450 124.827 L 318.038 125.154 319.750 121.327 C 321.212 118.061, 321.514 113.189, 321.812 88.112 C 322.099 63.956, 321.924 58.817, 320.830 59.243 C 320.099 59.528, 315.394 61.444, 310.377 63.501 L 301.253 67.240 300.816 89.448 C 300.400 110.517, 300.253 111.908, 297.939 116.578 C 294.346 123.830, 291.356 124.997, 276.367 124.998 L 264.234 125 265.813 120.750 C 267.076 117.350, 267.471 110.750, 267.787 87.750 C 268.004 71.938, 267.804 59.034, 267.341 59.076 C 266.879 59.117, 262 61.035, 256.500 63.337 L 246.500 67.522 246 90.511 C 245.460 115.340, 245.178 116.709, 239.513 122 L 236.837 124.500 215.668 124.500 C 190.936 124.500, 189.298 124.046, 185.662 116.179 C 183.557 111.624, 183.492 110.239, 183.181 63.750 C 183.005 37.487, 182.555 16.019, 182.181 16.042 C 181.806 16.065, 177.081 18.829, 171.681 22.184 M 566.500 25.585 L 556.500 35.072 559.500 37.224 C 561.150 38.407, 565.221 42.255, 568.546 45.775 L 574.592 52.174 582.746 46.128 C 592.955 38.559, 594.711 36.130, 592.985 31.964 C 591.845 29.212, 578.614 15.933, 577.128 16.049 C 576.783 16.076, 572 20.368, 566.500 25.585 M 90.500 27 C 85.021 32.500, 81.147 37, 81.891 37 C 82.635 37, 86.902 40.570, 91.372 44.932 L 99.500 52.865 105.500 48.381 C 120.926 36.851, 121.317 34.983, 110.520 24.360 C 106.406 20.312, 102.460 17, 101.751 17 C 101.042 17, 95.979 21.500, 90.500 27 M 401 50.196 L 401 83.393 403.632 78.111 C 406.620 72.114, 415.469 62.110, 420.575 58.953 L 424 56.837 424 47.918 L 424 39 431.500 39 L 439 39 439 28 L 439 17 420 17 L 401 17 401 50.196 M 445 28 L 445 39 466 39 L 487 39 487 28 L 487 17 466 17 L 445 17 445 28 M 49.500 29.575 C 42.385 36.359, 39.933 39.273, 41 39.674 C 41.825 39.984, 45.971 43.730, 50.214 48 L 57.928 55.761 63.714 51.550 C 72.090 45.455, 77 40.551, 77 38.282 C 77 37.192, 75.720 34.533, 74.155 32.373 C 71.236 28.344, 61.902 19.984, 60.361 20.020 C 59.888 20.031, 55 24.331, 49.500 29.575 M 445 67.771 L 445 78.542 451.139 79.709 C 468.148 82.942, 475.765 101.307, 465.990 115.515 C 462.507 120.577, 454.493 125, 448.804 125 L 445 125 445 136 L 445 147 448.790 147 C 454.436 147, 463.722 144.306, 469.530 140.983 C 475.567 137.529, 483.936 129.005, 486.798 123.397 C 493.186 110.874, 493.751 95.475, 488.252 83.724 C 482.184 70.757, 469.087 60.590, 455.114 57.999 C 444.424 56.017, 445 55.460, 445 67.771 M 565.205 58.092 C 553.589 59.862, 537.600 67.471, 531.227 74.260 L 529.125 76.500 534.203 84.748 L 539.280 92.997 543.730 88.895 C 546.177 86.639, 551.015 83.507, 554.481 81.936 C 575.051 72.609, 598.702 79.174, 608.342 96.887 C 611.451 102.600, 615 115.537, 615 121.160 L 615 125 554 125 C 519.230 125, 493 125.381, 493 125.886 C 493 128.146, 484.203 139.584, 479.768 143.089 L 474.820 147 556.410 147 L 638 147 637.980 135.250 C 637.932 106.862, 631.546 87.221, 618.066 74 C 605.057 61.241, 584.712 55.119, 565.205 58.092 M 0.017 80.250 C 0.037 104.803, 1.094 112.583, 5.686 121.970 C 11.670 134.200, 24.474 142.575, 41.682 145.515 C 49.237 146.805, 58.274 147.031, 92.682 146.792 L 134.500 146.500 140 143.500 C 146.766 139.809, 151.208 133.569, 152.835 125.467 C 153.571 121.802, 154 108.313, 154 88.833 L 154 58 149.250 58.009 C 146.637 58.013, 142.185 58.296, 139.356 58.635 L 134.212 59.253 133.814 85.377 C 133.440 109.858, 133.278 111.761, 131.236 115.655 C 128.380 121.098, 125.040 123.611, 118.910 124.926 C 110.881 126.648, 51.113 126.306, 42.500 124.488 C 31.473 122.161, 24.505 116.123, 21.856 106.599 C 21.229 104.345, 20.442 94.912, 20.108 85.637 L 19.500 68.774 10.174 63.387 C 5.045 60.424, 0.658 58, 0.424 58 C 0.191 58, 0.008 68.012, 0.017 80.250 M 431.813 59.926 C 429.236 60.934, 425.550 62.733, 423.623 63.924 C 419.172 66.675, 410.467 76.162, 408.063 80.882 C 405.393 86.124, 403 94.774, 403 99.182 L 403 103 414 103 L 425 103 425.022 99.750 C 425.055 94.924, 428.156 88.979, 432.847 84.750 C 435.134 82.688, 437.454 81, 438.003 81 C 438.608 81, 439 76.478, 439 69.500 C 439 56.674, 439.256 57.016, 431.813 59.926"/></svg>